Run_50002
nRows=4
nColumns=164

# SIMM Motion File Header:
name Run_50002
datacolumns 164
datarows 4
otherdata 1
range 2.75000000 2.78000000
endheader
time	pelvis_tilt	pelvis_list	pelvis_rotation	pelvis_tx	pelvis_ty	pelvis_tz	hip_flexion_r	hip_adduction_r	hip_rotation_r	knee_angle_r	ankle_angle_r	hip_flexion_l	hip_adduction_l	hip_rotation_l	knee_angle_l	ankle_angle_l	lumbar_extension	lumbar_bending	lumbar_rotation	arm_flex_r	arm_add_r	arm_rot_r	elbow_flex_r	pro_sup_r	arm_flex_l	arm_add_l	arm_rot_l	elbow_flex_l	pro_sup_l	subtalar_angle_r	mtp_angle_r	subtalar_angle_l	mtp_angle_l	wrist_flex_r	wrist_dev_r	wrist_flex_l	wrist_dev_l	LASI_tx	LASI_ty	LASI_tz	RASI_tx	RASI_ty	RASI_tz	LPSI_tx	LPSI_ty	LPSI_tz	RPSI_tx	RPSI_ty	RPSI_tz	RTH1_tx	RTH1_ty	RTH1_tz	RTH2_tx	RTH2_ty	RTH2_tz	RTH3_tx	RTH3_ty	RTH3_tz	LTH1_tx	LTH1_ty	LTH1_tz	LTH2_tx	LTH2_ty	LTH2_tz	LTH3_tx	LTH3_ty	LTH3_tz	RTB1_tx	RTB1_ty	RTB1_tz	RTB2_tx	RTB2_ty	RTB2_tz	RTB3_tx	RTB3_ty	RTB3_tz	LTB1_tx	LTB1_ty	LTB1_tz	LTB2_tx	LTB2_ty	LTB2_tz	LTB3_tx	LTB3_ty	LTB3_tz	RCAL_tx	RCAL_ty	RCAL_tz	RTOE_tx	RTOE_ty	RTOE_tz	RMT5_tx	RMT5_ty	RMT5_tz	LCAL_tx	LCAL_ty	LCAL_tz	LTOE_tx	LTOE_ty	LTOE_tz	LMT5_tx	LMT5_ty	LMT5_tz	LACR_tx	LACR_ty	LACR_tz	RACR_tx	RACR_ty	RACR_tz	CLAV_tx	CLAV_ty	CLAV_tz	C7_tx	C7_ty	C7_tz	RUA1_tx	RUA1_ty	RUA1_tz	RUA2_tx	RUA2_ty	RUA2_tz	RUA3_tx	RUA3_ty	RUA3_tz	RLEL_tx	RLEL_ty	RLEL_tz	RMEL_tx	RMEL_ty	RMEL_tz	LUA1_tx	LUA1_ty	LUA1_tz	LUA2_tx	LUA2_ty	LUA2_tz	LUA3_tx	LUA3_ty	LUA3_tz	LLEL_tx	LLEL_ty	LLEL_tz	LMEL_tx	LMEL_ty	LMEL_tz	RFAsuperior_tx	RFAsuperior_ty	RFAsuperior_tz	RFAradius_tx	RFAradius_ty	RFAradius_tz	RFAulna_tx	RFAulna_ty	RFAulna_tz	LFAsuperior_tx	LFAsuperior_ty	LFAsuperior_tz	LFAradius_tx	LFAradius_ty	LFAradius_tz	LFAulna_tx	LFAulna_ty	LFAulna_tz
      2.75000000	     -8.52000096	     -8.49755643	     -4.34298582	      0.77588555	      0.88685479	     -0.29490428	     36.20492502	     12.56440214	    -12.76519419	    -55.02837343	     24.45320717	     18.83455881	     -9.64087011	     -6.79338870	   -123.14514120	    -21.86054070	     -9.64502290	      8.24596512	      6.79015042	    -24.36191697	    -28.26435682	     -3.81610344	     91.43863206	     84.16610942	     -9.64441581	    -24.60358318	      0.99810685	     98.61640007	    110.47771914	      0.00000000	      0.00000000	      0.00000000	      0.00000000	      0.00000000	      0.00000000	      0.00000000	      0.00000000	      0.78974329	      0.88759621	     -0.41801527	      0.77985759	      0.93415039	     -0.17758747	      0.63212547	      0.95720755	     -0.36945041	      0.61895411	      0.96783676	     -0.27055120	      0.77490773	      0.70241420	     -0.11943550	      0.86111743	      0.64271585	     -0.13228646	      0.84249105	      0.53952418	     -0.15972090	      0.74811628	      0.69387732	     -0.46818160	      0.80897511	      0.59043989	     -0.46268836	      0.76096302	      0.48750202	     -0.45291143	      0.87615012	      0.33736030	     -0.24844505	      0.81610707	      0.27227210	     -0.20793802	      0.78763734	      0.17802748	     -0.28701853	      0.67069367	      0.38922341	     -0.37778220	      0.60002316	      0.46215223	     -0.43297361	      0.48346794	      0.46571785	     -0.35354673	      0.64658867	      0.10920704	     -0.31963789	      0.86782148	      0.06877914	     -0.31394661	      0.80931670	      0.04793612	     -0.21619573	      0.43958400	      0.58515478	     -0.34633148	      0.27558444	      0.44167833	     -0.31393126	      0.27310841	      0.48725078	     -0.41119782	      0.82167194	      1.38617544	     -0.46229915	      0.82514863	      1.37862995	     -0.16648385	      0.90022818	      1.30111793	     -0.29951871	      0.77711495	      1.41907407	     -0.31024994	      0.75963455	      1.28921937	     -0.05927678	      0.67914383	      1.24601604	     -0.07569384	      0.70367551	      1.19139051	     -0.00191647	      0.66123922	      1.14420433	      0.03717001	      0.62063830	      1.12267035	     -0.02338818	      0.75279068	      1.28434840	     -0.55481268	      0.69258470	      1.22549291	     -0.52774941	      0.72935781	      1.19249803	     -0.60240297	      0.69716866	      1.11778473	     -0.63655519	      0.66566930	      1.09053156	     -0.57403884	      0.75174679	      1.06824689	      0.02566911	      0.83472177	      0.99566279	     -0.04959772	      0.79308239	      0.94515845	     -0.01590446	      0.80975827	      1.08820951	     -0.60466672	      0.90836564	      1.02019483	     -0.51756774	      0.88883236	      0.98347208	     -0.57535344
      2.76000000	     -8.84285307	     -8.17284635	     -3.47756889	      0.77263540	      0.88662783	     -0.29578705	     33.34254925	     12.47176138	    -11.67315683	    -55.17538459	     27.57874981	     26.14699061	     -8.63559366	     -4.17598432	   -126.32929208	    -19.60269693	     -9.45523481	      7.94699073	      7.53992066	    -20.66444716	    -28.82200456	     -3.93852920	     92.77441775	     85.99447017	    -11.84676392	    -24.37936749	      0.64905827	     97.18753518	    114.45180450	      0.00000000	      0.00000000	      0.00000000	      0.00000000	      0.00000000	      0.00000000	      0.00000000	      0.00000000	      0.78465565	      0.88956671	     -0.41968026	      0.77717207	      0.93198141	     -0.17809015	      0.62763510	      0.95867965	     -0.36675439	      0.61661433	      0.96980437	     -0.26757833	      0.76590192	      0.69727560	     -0.12026678	      0.85002323	      0.63298361	     -0.13582143	      0.82487960	      0.53159699	     -0.16081614	      0.75733339	      0.69705117	     -0.46792729	      0.83264849	      0.60122447	     -0.46138578	      0.79697524	      0.49520552	     -0.45193513	      0.84040061	      0.32753419	     -0.25882851	      0.77952600	      0.26752150	     -0.20910959	      0.74496598	      0.17509263	     -0.28806891	      0.71736439	      0.39461429	     -0.37683981	      0.64285665	      0.46094074	     -0.43403833	      0.52490856	      0.46013026	     -0.35703579	      0.59998729	      0.11046799	     -0.31960860	      0.82117130	      0.06859237	     -0.31410921	      0.76219886	      0.04839447	     -0.21597931	      0.46966352	      0.57832721	     -0.34983798	      0.31989938	      0.41959212	     -0.32017356	      0.31737422	      0.46211739	     -0.41928008	      0.81862316	      1.38721131	     -0.46322906	      0.82596124	      1.37886728	     -0.16762202	      0.89806006	      1.30138991	     -0.30117856	      0.77458917	      1.41907788	     -0.31330155	      0.76659963	      1.28736695	     -0.05916391	      0.68924831	      1.23675923	     -0.07296787	      0.72036904	      1.18534828	      0.00074044	      0.68350840	      1.13519123	      0.04195054	      0.64154801	      1.11068110	     -0.01655688	      0.74436475	      1.28844020	     -0.55445683	      0.68432169	      1.23334864	     -0.52196425	      0.71362019	      1.19910562	     -0.59884806	      0.67786494	      1.12563547	     -0.63302066	      0.64862931	      1.09998873	     -0.56908567	      0.77897465	      1.06653635	      0.02499793	      0.86348258	      1.00008169	     -0.05524219	      0.82793392	      0.94665060	     -0.01872122	      0.78996439	      1.08759123	     -0.60614972	      0.88447935	      1.01029149	     -0.52236362	      0.86264205	      0.97904802	     -0.58246784
      2.77000000	     -9.14352019	     -8.04665752	     -2.32307573	      0.76961597	      0.88738766	     -0.29681896	     30.06726655	     12.37692030	    -11.07394806	    -54.57089536	     29.89793204	     33.52747082	     -7.46617705	     -1.31226434	   -128.01303590	    -17.43632981	     -9.30603142	      7.86509103	      8.42242743	    -17.84637120	    -29.56058365	     -4.53012616	     95.39307594	     87.45905842	    -13.68885855	    -24.58701378	      0.62294882	     96.40267373	    119.11962514	      0.00000000	      0.00000000	      0.00000000	      0.00000000	      0.00000000	      0.00000000	      0.00000000	      0.00000000	      0.77887181	      0.89189748	     -0.42266828	      0.77524517	      0.92980403	     -0.17859740	      0.62307231	      0.96025826	     -0.36317031	      0.61454281	      0.97210424	     -0.26405079	      0.75571622	      0.69417494	     -0.12099121	      0.83675888	      0.62688510	     -0.13905213	      0.80517263	      0.52604082	     -0.16127312	      0.76627656	      0.70348844	     -0.46740124	      0.85434382	      0.61747688	     -0.46033279	      0.83179388	      0.50969868	     -0.45047694	      0.80291638	      0.31961592	     -0.26686146	      0.74144964	      0.26518217	     -0.20993105	      0.70160398	      0.17329122	     -0.28751391	      0.76444192	      0.40319668	     -0.37699689	      0.68468047	      0.46211247	     -0.43423410	      0.56679335	      0.45283046	     -0.36012783	      0.55260905	      0.11220548	     -0.31967385	      0.77339443	      0.06874555	     -0.31374050	      0.71403175	      0.04863649	     -0.21571335	      0.49552809	      0.56687896	     -0.35213914	      0.36633415	      0.39034416	     -0.32797438	      0.36276635	      0.43188776	     -0.42747111	      0.81512845	      1.38900073	     -0.46339705	      0.82816913	      1.37990593	     -0.16850706	      0.89622781	      1.30216287	     -0.30276744	      0.77117354	      1.41944686	     -0.31298922	      0.77580618	      1.28750619	     -0.05867529	      0.70123099	      1.23162950	     -0.07007545	      0.73748792	      1.18275699	      0.00292014	      0.70593853	      1.13038925	      0.04585555	      0.66322561	      1.10291073	     -0.01092088	      0.73519724	      1.29378054	     -0.55347033	      0.67551546	      1.24161263	     -0.51666000	      0.69871447	      1.20763831	     -0.59600037	      0.65911845	      1.13567629	     -0.62994163	      0.63240549	      1.11078654	     -0.56514192	      0.80548585	      1.06950111	      0.02335916	      0.89080103	      1.01046375	     -0.06281077	      0.86240558	      0.95441557	     -0.02439283	      0.77031018	      1.09063399	     -0.60729637	      0.85991315	      1.00529453	     -0.52674801	      0.83809980	      0.97918002	     -0.58966268
      2.78000000	     -9.30096754	     -7.90948076	     -1.23020971	      0.76721648	      0.88924119	     -0.29768625	     25.98914413	     12.25210354	    -10.72391957	    -52.82341896	     31.37694878	     40.41999367	     -6.04008196	      1.29330034	   -128.08739210	    -15.16741097	     -9.28338270	      7.69951084	      9.53763103	    -15.60244625	    -30.67080240	     -5.08941380	     98.86264866	     87.77552240	    -15.41638652	    -25.19060533	      0.91669526	     96.37660742	    122.15187396	      0.00000000	      0.00000000	      0.00000000	      0.00000000	      0.00000000	      0.00000000	      0.00000000	      0.00000000	      0.77336641	      0.89488043	     -0.42581904	      0.77372117	      0.92862165	     -0.17868945	      0.61937021	      0.96215871	     -0.35965302	      0.61297701	      0.97456854	     -0.26093256	      0.74335093	      0.69224273	     -0.12213227	      0.81958962	      0.62134376	     -0.14172128	      0.78116600	      0.52124872	     -0.16245070	      0.77438094	      0.71281237	     -0.46691529	      0.87320736	      0.63823832	     -0.45940958	      0.86413769	      0.52976055	     -0.44872984	      0.76429331	      0.31320268	     -0.27034012	      0.70077975	      0.26305136	     -0.21064710	      0.65675091	      0.17197735	     -0.28682752	      0.81007151	      0.41499219	     -0.37696337	      0.72449360	      0.46560208	     -0.43352622	      0.60871160	      0.44423691	     -0.36257446	      0.50426387	      0.11472610	     -0.31945029	      0.72423694	      0.06859879	     -0.31300371	      0.66451792	      0.04836608	     -0.21533680	      0.51829556	      0.55009488	     -0.35314639	      0.41676479	      0.35544088	     -0.33745379	      0.41081457	      0.39819711	     -0.43591191	      0.81150595	      1.39126803	     -0.46330957	      0.83083074	      1.38206392	     -0.16947852	      0.89488387	      1.30360034	     -0.30441068	      0.76846132	      1.42058442	     -0.31018746	      0.78685561	      1.28895151	     -0.05820748	      0.71396527	      1.23061937	     -0.06595587	      0.75500612	      1.18320813	      0.00476380	      0.72850495	      1.12904591	      0.04920642	      0.68501554	      1.09879765	     -0.00579734	      0.72580019	      1.30020976	     -0.55198132	      0.66600108	      1.25002423	     -0.51237668	      0.68489695	      1.21717412	     -0.59406210	      0.64113249	      1.14707815	     -0.62740593	      0.61599077	      1.12244988	     -0.56219216	      0.83121964	      1.07637154	      0.02065232	      0.91611870	      1.02575974	     -0.07157212	      0.89509957	      0.96748554	     -0.03266351	      0.75099610	      1.09701492	     -0.60791347	      0.83655773	      1.00564364	     -0.53065750	      0.81456801	      0.98288883	     -0.59547032
